<svg xmlns="http://www.w3.org/2000/svg" xmlns:xlink="http://www.w3.org/1999/xlink" id="Layer_1" width="70" height="70" x="0" y="0" enable-background="new 0 0 70 70" version="1.1" viewBox="0 0 70 70" xml:space="preserve"><g><g><linearGradient id="SVGID_1_" x1="-1.332" x2="67.042" y1="43.737" y2="26.097" gradientUnits="userSpaceOnUse"><stop offset=".124" stop-color="#7866FF"/><stop offset=".538" stop-color="#FE2EB6"/><stop offset=".855" stop-color="#FD0486"/></linearGradient><polygon fill="url(#SVGID_1_)" points="67.3 16 43.7 0 0 31.1 11.1 70 58.9 60.3"/><linearGradient id="SVGID_2_" x1="45.915" x2="67.658" y1="38.91" y2="9.099" gradientUnits="userSpaceOnUse"><stop offset=".124" stop-color="#FF0080"/><stop offset=".259" stop-color="#FE0385"/><stop offset=".411" stop-color="#FA0C92"/><stop offset=".571" stop-color="#F41BA9"/><stop offset=".736" stop-color="#EB2FC8"/><stop offset=".866" stop-color="#E343E6"/></linearGradient><polygon fill="url(#SVGID_2_)" points="67.3 16 43.7 0 38 15.7 38 47.8 70 47.8"/></g><g><rect width="43.2" height="43.2" x="13.4" y="13.4" fill="#000"/><rect width="16.2" height="2.7" x="17.4" y="48.5" fill="#FFF"/><g><path fill="#FFF" d="M17.4,19.1h6.9c5.6,0,9.5,3.8,9.5,8.9V28c0,5-3.9,8.9-9.5,8.9h-6.9V19.1z M21.4,22.7v10.7h3 c3.2,0,5.4-2.2,5.4-5.3V28c0-3.2-2.2-5.4-5.4-5.4H21.4z"/><polygon fill="#FFF" points="40.3 22.7 34.9 22.7 34.9 19.1 49.6 19.1 49.6 22.7 44.2 22.7 44.2 37 40.3 37"/></g></g></g></svg>